<mxfile host="app.diagrams.net" agent="Mozilla/5.0 (Windows NT 10.0; Win64; x64) AppleWebKit/537.36 (KHTML, like Gecko) Chrome/128.0.0.0 Safari/537.36 OPR/114.0.0.0 (Edition MSI)" version="24.8.6">
  <diagram name="Database Diagram" id="ZCPwLjvfVNnfYyzKpjbR">
    <mxGraphModel dx="135772" dy="80244" grid="1" gridSize="10" guides="1" tooltips="1" connect="1" arrows="1" fold="1" page="1" pageScale="1" pageWidth="827" pageHeight="1169" math="0" shadow="0">
      <root>
        <mxCell id="0" />
        <mxCell id="1" parent="0" />
        <mxCell id="Mmd0oRUZzQK4tD6eFKmL-1" value="organizations" style="shape=swimlane;childLayout=stackLayout;horizontal=1;startSize=20;horizontalStack=0;resizeParent=1;resizeLast=0;" vertex="1" parent="1">
          <mxGeometry x="180" y="320" width="180" height="120" as="geometry" />
        </mxCell>
        <mxCell id="Mmd0oRUZzQK4tD6eFKmL-2" value="organizations_id : INT (PK)" style="text;align=left;verticalAlign=top;" vertex="1" parent="Mmd0oRUZzQK4tD6eFKmL-1">
          <mxGeometry y="20" width="180" height="20" as="geometry" />
        </mxCell>
        <mxCell id="Mmd0oRUZzQK4tD6eFKmL-3" value="name : NVARCHAR(255)" style="text;align=left;verticalAlign=top;" vertex="1" parent="Mmd0oRUZzQK4tD6eFKmL-1">
          <mxGeometry y="40" width="180" height="20" as="geometry" />
        </mxCell>
        <mxCell id="Mmd0oRUZzQK4tD6eFKmL-4" value="comment : NVARCHAR(MAX)" style="text;align=left;verticalAlign=top;" vertex="1" parent="Mmd0oRUZzQK4tD6eFKmL-1">
          <mxGeometry y="60" width="180" height="20" as="geometry" />
        </mxCell>
        <mxCell id="Mmd0oRUZzQK4tD6eFKmL-5" value="departments" style="shape=swimlane;childLayout=stackLayout;horizontal=1;startSize=20;horizontalStack=0;resizeParent=1;resizeLast=0;" vertex="1" parent="1">
          <mxGeometry x="440" y="280" width="180" height="160" as="geometry" />
        </mxCell>
        <mxCell id="Mmd0oRUZzQK4tD6eFKmL-6" value="departments_id : INT (PK)" style="text;align=left;verticalAlign=top;" vertex="1" parent="Mmd0oRUZzQK4tD6eFKmL-5">
          <mxGeometry y="20" width="180" height="20" as="geometry" />
        </mxCell>
        <mxCell id="Mmd0oRUZzQK4tD6eFKmL-7" value="organizations_id : INT (FK)" style="text;align=left;verticalAlign=top;" vertex="1" parent="Mmd0oRUZzQK4tD6eFKmL-5">
          <mxGeometry y="40" width="180" height="20" as="geometry" />
        </mxCell>
        <mxCell id="Mmd0oRUZzQK4tD6eFKmL-8" value="name : NVARCHAR(255)" style="text;align=left;verticalAlign=top;" vertex="1" parent="Mmd0oRUZzQK4tD6eFKmL-5">
          <mxGeometry y="60" width="180" height="20" as="geometry" />
        </mxCell>
        <mxCell id="Mmd0oRUZzQK4tD6eFKmL-9" value="parent_id : INT (FK)" style="text;align=left;verticalAlign=top;" vertex="1" parent="Mmd0oRUZzQK4tD6eFKmL-5">
          <mxGeometry y="80" width="180" height="20" as="geometry" />
        </mxCell>
        <mxCell id="Mmd0oRUZzQK4tD6eFKmL-10" value="comment : NVARCHAR(MAX)" style="text;align=left;verticalAlign=top;" vertex="1" parent="Mmd0oRUZzQK4tD6eFKmL-5">
          <mxGeometry y="100" width="180" height="20" as="geometry" />
        </mxCell>
        <mxCell id="Mmd0oRUZzQK4tD6eFKmL-11" value="positions" style="shape=swimlane;childLayout=stackLayout;horizontal=1;startSize=20;horizontalStack=0;resizeParent=1;resizeLast=0;" vertex="1" parent="1">
          <mxGeometry x="1030" y="300" width="180" height="80" as="geometry" />
        </mxCell>
        <mxCell id="Mmd0oRUZzQK4tD6eFKmL-12" value="position_id : INT (PK)" style="text;align=left;verticalAlign=top;" vertex="1" parent="Mmd0oRUZzQK4tD6eFKmL-11">
          <mxGeometry y="20" width="180" height="20" as="geometry" />
        </mxCell>
        <mxCell id="Mmd0oRUZzQK4tD6eFKmL-13" value="name : NVARCHAR(255)" style="text;align=left;verticalAlign=top;" vertex="1" parent="Mmd0oRUZzQK4tD6eFKmL-11">
          <mxGeometry y="40" width="180" height="20" as="geometry" />
        </mxCell>
        <mxCell id="Mmd0oRUZzQK4tD6eFKmL-14" value="status" style="shape=swimlane;childLayout=stackLayout;horizontal=1;startSize=20;horizontalStack=0;resizeParent=1;resizeLast=0;" vertex="1" parent="1">
          <mxGeometry x="490" y="30" width="180" height="80" as="geometry" />
        </mxCell>
        <mxCell id="Mmd0oRUZzQK4tD6eFKmL-15" value="status_id : INT (PK)" style="text;align=left;verticalAlign=top;" vertex="1" parent="Mmd0oRUZzQK4tD6eFKmL-14">
          <mxGeometry y="20" width="180" height="20" as="geometry" />
        </mxCell>
        <mxCell id="Mmd0oRUZzQK4tD6eFKmL-16" value="name : NVARCHAR(50)" style="text;align=left;verticalAlign=top;" vertex="1" parent="Mmd0oRUZzQK4tD6eFKmL-14">
          <mxGeometry y="40" width="180" height="20" as="geometry" />
        </mxCell>
        <mxCell id="Mmd0oRUZzQK4tD6eFKmL-17" style="edgeStyle=orthogonalEdgeStyle;rounded=0;orthogonalLoop=1;jettySize=auto;html=1;exitX=0.5;exitY=1;exitDx=0;exitDy=0;entryX=1;entryY=0.5;entryDx=0;entryDy=0;" edge="1" parent="1" source="Mmd0oRUZzQK4tD6eFKmL-18" target="Mmd0oRUZzQK4tD6eFKmL-39">
          <mxGeometry relative="1" as="geometry" />
        </mxCell>
        <mxCell id="Mmd0oRUZzQK4tD6eFKmL-18" value="Employees" style="shape=swimlane;childLayout=stackLayout;horizontal=1;startSize=20;horizontalStack=0;resizeParent=1;resizeLast=0;" vertex="1" parent="1">
          <mxGeometry x="730" y="-140" width="220" height="320" as="geometry" />
        </mxCell>
        <mxCell id="Mmd0oRUZzQK4tD6eFKmL-19" value="employee_id : INT (PK)" style="text;align=left;verticalAlign=top;" vertex="1" parent="Mmd0oRUZzQK4tD6eFKmL-18">
          <mxGeometry y="20" width="220" height="20" as="geometry" />
        </mxCell>
        <mxCell id="Mmd0oRUZzQK4tD6eFKmL-20" value="last_name : NVARCHAR(50)" style="text;align=left;verticalAlign=top;" vertex="1" parent="Mmd0oRUZzQK4tD6eFKmL-18">
          <mxGeometry y="40" width="220" height="20" as="geometry" />
        </mxCell>
        <mxCell id="Mmd0oRUZzQK4tD6eFKmL-21" value="first_name : NVARCHAR(50)" style="text;align=left;verticalAlign=top;" vertex="1" parent="Mmd0oRUZzQK4tD6eFKmL-18">
          <mxGeometry y="60" width="220" height="20" as="geometry" />
        </mxCell>
        <mxCell id="Mmd0oRUZzQK4tD6eFKmL-22" value="middle_name : NVARCHAR(50)" style="text;align=left;verticalAlign=top;" vertex="1" parent="Mmd0oRUZzQK4tD6eFKmL-18">
          <mxGeometry y="80" width="220" height="20" as="geometry" />
        </mxCell>
        <mxCell id="Mmd0oRUZzQK4tD6eFKmL-23" value="date_of_birth : DATE" style="text;align=left;verticalAlign=top;" vertex="1" parent="Mmd0oRUZzQK4tD6eFKmL-18">
          <mxGeometry y="100" width="220" height="20" as="geometry" />
        </mxCell>
        <mxCell id="Mmd0oRUZzQK4tD6eFKmL-24" value="passport_details : NVARCHAR(20)" style="text;align=left;verticalAlign=top;" vertex="1" parent="Mmd0oRUZzQK4tD6eFKmL-18">
          <mxGeometry y="120" width="220" height="20" as="geometry" />
        </mxCell>
        <mxCell id="Mmd0oRUZzQK4tD6eFKmL-25" value="passport_issue_date : DATE" style="text;align=left;verticalAlign=top;" vertex="1" parent="Mmd0oRUZzQK4tD6eFKmL-18">
          <mxGeometry y="140" width="220" height="20" as="geometry" />
        </mxCell>
        <mxCell id="Mmd0oRUZzQK4tD6eFKmL-26" value="passport_division_code : NVARCHAR(10)" style="text;align=left;verticalAlign=top;" vertex="1" parent="Mmd0oRUZzQK4tD6eFKmL-18">
          <mxGeometry y="160" width="220" height="20" as="geometry" />
        </mxCell>
        <mxCell id="Mmd0oRUZzQK4tD6eFKmL-27" value="passport_issued_by : NVARCHAR(255)" style="text;align=left;verticalAlign=top;" vertex="1" parent="Mmd0oRUZzQK4tD6eFKmL-18">
          <mxGeometry y="180" width="220" height="20" as="geometry" />
        </mxCell>
        <mxCell id="Mmd0oRUZzQK4tD6eFKmL-28" value="address : NVARCHAR(255)" style="text;align=left;verticalAlign=top;" vertex="1" parent="Mmd0oRUZzQK4tD6eFKmL-18">
          <mxGeometry y="200" width="220" height="20" as="geometry" />
        </mxCell>
        <mxCell id="Mmd0oRUZzQK4tD6eFKmL-29" value="salary : DECIMAL(18,2)" style="text;align=left;verticalAlign=top;" vertex="1" parent="Mmd0oRUZzQK4tD6eFKmL-18">
          <mxGeometry y="220" width="220" height="20" as="geometry" />
        </mxCell>
        <mxCell id="Mmd0oRUZzQK4tD6eFKmL-30" value="status_id : INT (FK)" style="text;align=left;verticalAlign=top;" vertex="1" parent="Mmd0oRUZzQK4tD6eFKmL-18">
          <mxGeometry y="240" width="220" height="20" as="geometry" />
        </mxCell>
        <mxCell id="Mmd0oRUZzQK4tD6eFKmL-31" value="files" style="shape=swimlane;childLayout=stackLayout;horizontal=1;startSize=20;horizontalStack=0;resizeParent=1;resizeLast=0;" vertex="1" parent="1">
          <mxGeometry x="1010" y="-220" width="220" height="120" as="geometry" />
        </mxCell>
        <mxCell id="Mmd0oRUZzQK4tD6eFKmL-32" value="scan_id : INT (PK)" style="text;align=left;verticalAlign=top;" vertex="1" parent="Mmd0oRUZzQK4tD6eFKmL-31">
          <mxGeometry y="20" width="220" height="20" as="geometry" />
        </mxCell>
        <mxCell id="Mmd0oRUZzQK4tD6eFKmL-33" value="passport_scan : VARBINARY(MAX)" style="text;align=left;verticalAlign=top;" vertex="1" parent="Mmd0oRUZzQK4tD6eFKmL-31">
          <mxGeometry y="40" width="220" height="20" as="geometry" />
        </mxCell>
        <mxCell id="Mmd0oRUZzQK4tD6eFKmL-34" value="file_name: NVARCHAR(50)" style="text;align=left;verticalAlign=top;" vertex="1" parent="Mmd0oRUZzQK4tD6eFKmL-31">
          <mxGeometry y="60" width="220" height="20" as="geometry" />
        </mxCell>
        <mxCell id="Mmd0oRUZzQK4tD6eFKmL-35" value="file_path: NVARCHAR(50)" style="text;align=left;verticalAlign=top;" vertex="1" parent="Mmd0oRUZzQK4tD6eFKmL-31">
          <mxGeometry y="80" width="220" height="20" as="geometry" />
        </mxCell>
        <mxCell id="Mmd0oRUZzQK4tD6eFKmL-36" value="employee_id : INT (FK)" style="text;align=left;verticalAlign=top;" vertex="1" parent="Mmd0oRUZzQK4tD6eFKmL-31">
          <mxGeometry y="100" width="220" height="20" as="geometry" />
        </mxCell>
        <mxCell id="Mmd0oRUZzQK4tD6eFKmL-37" value="hr_operations" style="shape=swimlane;childLayout=stackLayout;horizontal=1;startSize=20;horizontalStack=0;resizeParent=1;resizeLast=0;" vertex="1" parent="1">
          <mxGeometry x="720" y="250" width="220" height="160" as="geometry" />
        </mxCell>
        <mxCell id="Mmd0oRUZzQK4tD6eFKmL-38" value="operation_id : INT (PK)" style="text;align=left;verticalAlign=top;" vertex="1" parent="Mmd0oRUZzQK4tD6eFKmL-37">
          <mxGeometry y="20" width="220" height="20" as="geometry" />
        </mxCell>
        <mxCell id="Mmd0oRUZzQK4tD6eFKmL-39" value="employee_id : INT (FK)" style="text;align=left;verticalAlign=top;" vertex="1" parent="Mmd0oRUZzQK4tD6eFKmL-37">
          <mxGeometry y="40" width="220" height="20" as="geometry" />
        </mxCell>
        <mxCell id="Mmd0oRUZzQK4tD6eFKmL-40" value="operation_type : NVARCHAR(50)" style="text;align=left;verticalAlign=top;" vertex="1" parent="Mmd0oRUZzQK4tD6eFKmL-37">
          <mxGeometry y="60" width="220" height="20" as="geometry" />
        </mxCell>
        <mxCell id="Mmd0oRUZzQK4tD6eFKmL-41" value="departments_id : INT (FK)" style="text;align=left;verticalAlign=top;" vertex="1" parent="Mmd0oRUZzQK4tD6eFKmL-37">
          <mxGeometry y="80" width="220" height="20" as="geometry" />
        </mxCell>
        <mxCell id="Mmd0oRUZzQK4tD6eFKmL-42" value="position_id : INT (FK)" style="text;align=left;verticalAlign=top;" vertex="1" parent="Mmd0oRUZzQK4tD6eFKmL-37">
          <mxGeometry y="100" width="220" height="20" as="geometry" />
        </mxCell>
        <mxCell id="Mmd0oRUZzQK4tD6eFKmL-43" value="operation_date : DATE" style="text;align=left;verticalAlign=top;" vertex="1" parent="Mmd0oRUZzQK4tD6eFKmL-37">
          <mxGeometry y="120" width="220" height="20" as="geometry" />
        </mxCell>
        <mxCell id="Mmd0oRUZzQK4tD6eFKmL-44" value="change_history" style="shape=swimlane;childLayout=stackLayout;horizontal=1;startSize=20;horizontalStack=0;resizeParent=1;resizeLast=0;" vertex="1" parent="1">
          <mxGeometry x="130" y="-140" width="220" height="120" as="geometry" />
        </mxCell>
        <mxCell id="Mmd0oRUZzQK4tD6eFKmL-45" value="нistory_id : INT (PK)" style="text;align=left;verticalAlign=top;" vertex="1" parent="Mmd0oRUZzQK4tD6eFKmL-44">
          <mxGeometry y="20" width="220" height="20" as="geometry" />
        </mxCell>
        <mxCell id="Mmd0oRUZzQK4tD6eFKmL-46" value="operation_timestamp : DATETIME" style="text;align=left;verticalAlign=top;" vertex="1" parent="Mmd0oRUZzQK4tD6eFKmL-44">
          <mxGeometry y="40" width="220" height="20" as="geometry" />
        </mxCell>
        <mxCell id="Mmd0oRUZzQK4tD6eFKmL-47" value="operation_object : NVARCHAR(50)" style="text;align=left;verticalAlign=top;" vertex="1" parent="Mmd0oRUZzQK4tD6eFKmL-44">
          <mxGeometry y="60" width="220" height="20" as="geometry" />
        </mxCell>
        <mxCell id="Mmd0oRUZzQK4tD6eFKmL-48" value="changed_fields : NVARCHAR(MAX)" style="text;align=left;verticalAlign=top;" vertex="1" parent="Mmd0oRUZzQK4tD6eFKmL-44">
          <mxGeometry y="80" width="220" height="20" as="geometry" />
        </mxCell>
        <mxCell id="Mmd0oRUZzQK4tD6eFKmL-49" value="user_id : INT (FK)" style="text;align=left;verticalAlign=top;" vertex="1" parent="Mmd0oRUZzQK4tD6eFKmL-44">
          <mxGeometry y="100" width="220" height="20" as="geometry" />
        </mxCell>
        <mxCell id="Mmd0oRUZzQK4tD6eFKmL-50" edge="1" parent="1" source="Mmd0oRUZzQK4tD6eFKmL-1" target="Mmd0oRUZzQK4tD6eFKmL-5" />
        <mxCell id="Mmd0oRUZzQK4tD6eFKmL-51" edge="1" parent="1" source="Mmd0oRUZzQK4tD6eFKmL-5" target="Mmd0oRUZzQK4tD6eFKmL-5" />
        <mxCell id="Mmd0oRUZzQK4tD6eFKmL-52" edge="1" parent="1" source="Mmd0oRUZzQK4tD6eFKmL-14" target="Mmd0oRUZzQK4tD6eFKmL-18" />
        <mxCell id="Mmd0oRUZzQK4tD6eFKmL-53" edge="1" parent="1" source="Mmd0oRUZzQK4tD6eFKmL-18" target="Mmd0oRUZzQK4tD6eFKmL-31" />
        <mxCell id="Mmd0oRUZzQK4tD6eFKmL-54" edge="1" parent="1" source="Mmd0oRUZzQK4tD6eFKmL-18" target="Mmd0oRUZzQK4tD6eFKmL-37" />
        <mxCell id="Mmd0oRUZzQK4tD6eFKmL-55" edge="1" parent="1" source="Mmd0oRUZzQK4tD6eFKmL-5" target="Mmd0oRUZzQK4tD6eFKmL-37" />
        <mxCell id="Mmd0oRUZzQK4tD6eFKmL-56" edge="1" parent="1" source="Mmd0oRUZzQK4tD6eFKmL-11" target="Mmd0oRUZzQK4tD6eFKmL-37" />
        <mxCell id="Mmd0oRUZzQK4tD6eFKmL-57" style="edgeStyle=orthogonalEdgeStyle;rounded=0;orthogonalLoop=1;jettySize=auto;html=1;exitX=0;exitY=0.5;exitDx=0;exitDy=0;entryX=1;entryY=0.5;entryDx=0;entryDy=0;" edge="1" parent="1" source="Mmd0oRUZzQK4tD6eFKmL-12" target="Mmd0oRUZzQK4tD6eFKmL-42">
          <mxGeometry relative="1" as="geometry" />
        </mxCell>
        <mxCell id="Mmd0oRUZzQK4tD6eFKmL-58" style="edgeStyle=orthogonalEdgeStyle;rounded=0;orthogonalLoop=1;jettySize=auto;html=1;exitX=1;exitY=0.25;exitDx=0;exitDy=0;entryX=0;entryY=0.5;entryDx=0;entryDy=0;" edge="1" parent="1" source="Mmd0oRUZzQK4tD6eFKmL-6" target="Mmd0oRUZzQK4tD6eFKmL-41">
          <mxGeometry relative="1" as="geometry" />
        </mxCell>
        <mxCell id="Mmd0oRUZzQK4tD6eFKmL-59" style="edgeStyle=orthogonalEdgeStyle;rounded=0;orthogonalLoop=1;jettySize=auto;html=1;exitX=1;exitY=0.75;exitDx=0;exitDy=0;entryX=0;entryY=0.5;entryDx=0;entryDy=0;" edge="1" parent="1" source="Mmd0oRUZzQK4tD6eFKmL-15" target="Mmd0oRUZzQK4tD6eFKmL-30">
          <mxGeometry relative="1" as="geometry" />
        </mxCell>
        <mxCell id="Mmd0oRUZzQK4tD6eFKmL-60" style="edgeStyle=orthogonalEdgeStyle;rounded=0;orthogonalLoop=1;jettySize=auto;html=1;exitX=1;exitY=0.5;exitDx=0;exitDy=0;entryX=0;entryY=0.75;entryDx=0;entryDy=0;" edge="1" parent="1" source="Mmd0oRUZzQK4tD6eFKmL-2" target="Mmd0oRUZzQK4tD6eFKmL-7">
          <mxGeometry relative="1" as="geometry" />
        </mxCell>
        <mxCell id="Mmd0oRUZzQK4tD6eFKmL-61" value="User" style="shape=swimlane;childLayout=stackLayout;horizontal=1;startSize=20;horizontalStack=0;resizeParent=1;resizeLast=0;" vertex="1" parent="1">
          <mxGeometry x="490" y="-140" width="180" height="80" as="geometry" />
        </mxCell>
        <mxCell id="Mmd0oRUZzQK4tD6eFKmL-62" value="user_id : INT (PK)" style="text;align=left;verticalAlign=top;" vertex="1" parent="Mmd0oRUZzQK4tD6eFKmL-61">
          <mxGeometry y="20" width="180" height="20" as="geometry" />
        </mxCell>
        <mxCell id="Mmd0oRUZzQK4tD6eFKmL-63" value="name : NVARCHAR(50)" style="text;align=left;verticalAlign=top;" vertex="1" parent="Mmd0oRUZzQK4tD6eFKmL-61">
          <mxGeometry y="40" width="180" height="20" as="geometry" />
        </mxCell>
        <mxCell id="Mmd0oRUZzQK4tD6eFKmL-64" style="edgeStyle=orthogonalEdgeStyle;rounded=0;orthogonalLoop=1;jettySize=auto;html=1;exitX=0;exitY=0.5;exitDx=0;exitDy=0;entryX=1;entryY=0.75;entryDx=0;entryDy=0;" edge="1" parent="1" source="Mmd0oRUZzQK4tD6eFKmL-62" target="Mmd0oRUZzQK4tD6eFKmL-49">
          <mxGeometry relative="1" as="geometry" />
        </mxCell>
        <mxCell id="Mmd0oRUZzQK4tD6eFKmL-65" style="edgeStyle=orthogonalEdgeStyle;rounded=0;orthogonalLoop=1;jettySize=auto;html=1;exitX=1;exitY=0.5;exitDx=0;exitDy=0;entryX=0;entryY=0.5;entryDx=0;entryDy=0;" edge="1" parent="1" source="Mmd0oRUZzQK4tD6eFKmL-19" target="Mmd0oRUZzQK4tD6eFKmL-36">
          <mxGeometry relative="1" as="geometry">
            <mxPoint x="1250" y="-50" as="targetPoint" />
          </mxGeometry>
        </mxCell>
        <mxCell id="Mmd0oRUZzQK4tD6eFKmL-66" value="*" style="text;html=1;align=center;verticalAlign=middle;whiteSpace=wrap;rounded=0;" vertex="1" parent="1">
          <mxGeometry x="340" y="-60" width="60" height="30" as="geometry" />
        </mxCell>
        <mxCell id="Mmd0oRUZzQK4tD6eFKmL-67" value="*" style="text;html=1;align=center;verticalAlign=middle;whiteSpace=wrap;rounded=0;" vertex="1" parent="1">
          <mxGeometry x="680" y="110" width="60" height="30" as="geometry" />
        </mxCell>
        <mxCell id="Mmd0oRUZzQK4tD6eFKmL-68" value="*" style="text;html=1;align=center;verticalAlign=middle;whiteSpace=wrap;rounded=0;" vertex="1" parent="1">
          <mxGeometry x="950" y="280" width="60" height="30" as="geometry" />
        </mxCell>
        <mxCell id="Mmd0oRUZzQK4tD6eFKmL-69" value="*" style="text;html=1;align=center;verticalAlign=middle;whiteSpace=wrap;rounded=0;" vertex="1" parent="1">
          <mxGeometry x="970" y="-150" width="60" height="30" as="geometry" />
        </mxCell>
        <mxCell id="Mmd0oRUZzQK4tD6eFKmL-70" value="*" style="text;html=1;align=center;verticalAlign=middle;whiteSpace=wrap;rounded=0;" vertex="1" parent="1">
          <mxGeometry x="930" y="365" width="60" height="30" as="geometry" />
        </mxCell>
        <mxCell id="Mmd0oRUZzQK4tD6eFKmL-71" value="*" style="text;html=1;align=center;verticalAlign=middle;whiteSpace=wrap;rounded=0;" vertex="1" parent="1">
          <mxGeometry x="680" y="345" width="60" height="30" as="geometry" />
        </mxCell>
        <mxCell id="Mmd0oRUZzQK4tD6eFKmL-72" value="*" style="text;html=1;align=center;verticalAlign=middle;whiteSpace=wrap;rounded=0;" vertex="1" parent="1">
          <mxGeometry x="400" y="300" width="60" height="30" as="geometry" />
        </mxCell>
        <mxCell id="Mmd0oRUZzQK4tD6eFKmL-73" value="1" style="text;html=1;align=center;verticalAlign=middle;whiteSpace=wrap;rounded=0;" vertex="1" parent="1">
          <mxGeometry x="440" y="-140" width="60" height="30" as="geometry" />
        </mxCell>
        <mxCell id="Mmd0oRUZzQK4tD6eFKmL-74" value="1" style="text;html=1;align=center;verticalAlign=middle;whiteSpace=wrap;rounded=0;" vertex="1" parent="1">
          <mxGeometry x="650" y="30" width="60" height="30" as="geometry" />
        </mxCell>
        <mxCell id="Mmd0oRUZzQK4tD6eFKmL-75" value="1" style="text;html=1;align=center;verticalAlign=middle;whiteSpace=wrap;rounded=0;" vertex="1" parent="1">
          <mxGeometry x="930" y="-140" width="60" height="30" as="geometry" />
        </mxCell>
        <mxCell id="Mmd0oRUZzQK4tD6eFKmL-76" value="1" style="text;html=1;align=center;verticalAlign=middle;whiteSpace=wrap;rounded=0;" vertex="1" parent="1">
          <mxGeometry x="790" y="180" width="60" height="30" as="geometry" />
        </mxCell>
        <mxCell id="Mmd0oRUZzQK4tD6eFKmL-78" value="1" style="text;html=1;align=center;verticalAlign=middle;whiteSpace=wrap;rounded=0;" vertex="1" parent="1">
          <mxGeometry x="990" y="300" width="60" height="30" as="geometry" />
        </mxCell>
        <mxCell id="Mmd0oRUZzQK4tD6eFKmL-79" value="1" style="text;html=1;align=center;verticalAlign=middle;whiteSpace=wrap;rounded=0;" vertex="1" parent="1">
          <mxGeometry x="600" y="270" width="60" height="30" as="geometry" />
        </mxCell>
        <mxCell id="Mmd0oRUZzQK4tD6eFKmL-80" value="1" style="text;html=1;align=center;verticalAlign=middle;whiteSpace=wrap;rounded=0;" vertex="1" parent="1">
          <mxGeometry x="340" y="315" width="60" height="30" as="geometry" />
        </mxCell>
      </root>
    </mxGraphModel>
  </diagram>
</mxfile>
